<svg xmlns="http://www.w3.org/2000/svg" enable-background="new 0 0 66 66" viewBox="0 0 66 66"><path d="M56.7,7.5L41,31.4v10.9c8.7,2.4,13.1,10.1,11.1,19.8c-0.3,1.7-1.8,2.9-3.6,2.9c-2.3,0-4.1-2.1-3.6-4.4
		c1.2-6.1-1.1-10-6.6-11.4c-1.1-0.1-9.9-0.1-10.6,0c-4.4,0.6-7.9,4.7-6.5,11.5c0.5,2.3-1.3,4.4-3.6,4.4c-1.7,0-3.2-1.2-3.6-2.9
		c-2-9.6,2.4-17.3,11.1-19.8V31.4L9.3,7.5C8,5.6,8.5,3,10.4,1.7c1.9-1.3,4.5-0.8,5.8,1.1C29.9,23,29.1,22.8,30.1,22.8
		c5.8-0.1,6.2,0.3,6.8-0.5L49.8,2.9c1.3-1.9,3.9-2.4,5.8-1.2C57.5,3,58,5.6,56.7,7.5z"/><path d="M39.8,58c0,3.8-3.1,6.8-6.9,6.8c-3.8,0-6.8-3.1-6.8-6.8c0-3.8,3.1-6.8,6.8-6.8C36.8,51.2,39.8,54.3,39.8,58z"/></svg>