<?xml version="1.0" encoding="UTF-8" standalone="no"?><svg xmlns:dc="http://purl.org/dc/elements/1.1/" xmlns:cc="http://creativecommons.org/ns#" xmlns:rdf="http://www.w3.org/1999/02/22-rdf-syntax-ns#" xmlns:svg="http://www.w3.org/2000/svg" xmlns="http://www.w3.org/2000/svg" xmlns:sodipodi="http://sodipodi.sourceforge.net/DTD/sodipodi-0.dtd" xmlns:inkscape="http://www.inkscape.org/namespaces/inkscape" width="32" height="32" viewBox="0 0 32 32" id="svg7727" version="1.1" inkscape:version="0.91 r13725" sodipodi:docname="envelope-greeting-card-om-wishes-diwali-cover.svg"><defs id="defs7729"><inkscape:path-effect effect="fillet-chamfer" id="path-effect6467-5-5-4" is_visible="true" fillet_chamfer_values="0,0 | 0,1 | 0,1" method="auto" radius="0" chamfer_steps="1" helper_size="0" flexible="false" use_knot_distance="false" ignore_radius_0="false" only_selected="true" hide_knots="false"/><inkscape:path-effect effect="fillet-chamfer" id="path-effect11235-8-1-8" is_visible="true" fillet_chamfer_values="0,0 | -0.22506544,1" method="auto" radius="0.25" chamfer_steps="1" helper_size="0" flexible="false" use_knot_distance="false" ignore_radius_0="false" only_selected="false" hide_knots="false"/><inkscape:path-effect effect="fillet-chamfer" id="path-effect11231-3-0-9" is_visible="true" fillet_chamfer_values="0,1 | 0,1 | 0,1 | 0,1" method="auto" radius="0.25" chamfer_steps="1" helper_size="0" flexible="false" use_knot_distance="false" ignore_radius_0="false" only_selected="false" hide_knots="false"/><inkscape:path-effect effect="fillet-chamfer" id="path-effect11235-7-8-1-9" is_visible="true" fillet_chamfer_values="0,0 | -0.22506544,1" method="auto" radius="0.25" chamfer_steps="1" helper_size="0" flexible="false" use_knot_distance="false" ignore_radius_0="false" only_selected="false" hide_knots="false"/><inkscape:path-effect effect="fillet-chamfer" id="path-effect11231-0-1-4-0" is_visible="true" fillet_chamfer_values="0,1 | 0,1 | 0,1 | 0,1" method="auto" radius="0.25" chamfer_steps="1" helper_size="0" flexible="false" use_knot_distance="false" ignore_radius_0="false" only_selected="false" hide_knots="false"/><inkscape:path-effect effect="fillet-chamfer" id="path-effect6961-4-1-9" is_visible="true" fillet_chamfer_values="0,0 | -0.33332944,1 | 0,1 | -0.3,1 | -0.3,1" method="auto" radius="0.3" chamfer_steps="1" helper_size="0" flexible="false" use_knot_distance="false" ignore_radius_0="false" only_selected="true" hide_knots="false"/><inkscape:path-effect effect="fillet-chamfer" id="path-effect15007" is_visible="true" fillet_chamfer_values="0,0 | -0.33332944,1 | 0,1 | -0.3,1 | -0.3,1" method="auto" radius="0.3" chamfer_steps="1" helper_size="0" flexible="false" use_knot_distance="false" ignore_radius_0="false" only_selected="true" hide_knots="false"/><inkscape:path-effect effect="fillet-chamfer" id="path-effect6961-7-7-7-4" is_visible="true" fillet_chamfer_values="0,0 | -0.33332944,1 | 0,1 | -0.3,1 | -0.3,1" method="auto" radius="0.3" chamfer_steps="1" helper_size="0" flexible="false" use_knot_distance="false" ignore_radius_0="false" only_selected="true" hide_knots="false"/></defs><sodipodi:namedview id="base" pagecolor="#ffffff" bordercolor="#666666" borderopacity="1.0" inkscape:pageopacity="0.0" inkscape:pageshadow="2" inkscape:zoom="11.313709" inkscape:cx="-2.9259666" inkscape:cy="11.994989" inkscape:document-units="px" inkscape:current-layer="layer1" showgrid="true" units="px" inkscape:window-width="1366" inkscape:window-height="716" inkscape:window-x="-8" inkscape:window-y="-8" inkscape:window-maximized="1" inkscape:snap-global="false"><inkscape:grid type="xygrid" id="grid4443" empspacing="2" spacingx="0.5" spacingy="0.5"/></sodipodi:namedview><g inkscape:label="Layer 1" inkscape:groupmode="layer" id="layer1" transform="translate(0,-1020.3622)" color="#000" font-style="normal" font-variant="normal" font-weight="normal" font-stretch="normal" font-size="medium" font-family="sans-serif" letter-spacing="normal" word-spacing="normal" direction="ltr" writing-mode="lr-tb" text-anchor="start" white-space="normal" clip-rule="nonzero" visibility="visible" color-interpolation="sRGB" color-interpolation-filters="linearRGB" fill="#3b3c3d" fill-opacity="1" fill-rule="evenodd" stroke="none" stroke-width="0.99999994px" stroke-linecap="round" stroke-linejoin="round" stroke-miterlimit="4" stroke-dasharray="none" stroke-dashoffset="0" stroke-opacity="1" color-rendering="auto" image-rendering="auto" shape-rendering="auto" text-rendering="auto"><path style="line-height:normal;text-indent:0;text-align:start;text-decoration-line:none;text-decoration-style:solid;text-decoration-color:#000000;text-transform:none;isolation:auto;mix-blend-mode:normal" d="M16 1023.111c.33 0 .661.118.926.35l10.976 9.629c.322.282.571.625.756.998l-5.158 3.139v-5.723a2.399 2.399 0 0 0-2.39-2.39H10.89a2.399 2.399 0 0 0-2.39 2.39v5.723l-5.158-3.14c.185-.372.434-.715.756-.997l10.976-9.63c.265-.231.595-.349.926-.349z" id="path9974" inkscape:connector-curvature="0" text-decoration="none" baseline-shift="baseline" display="inline" overflow="visible" opacity="1" solid-color="#000000" solid-opacity="1"/><path style="line-height:normal;text-indent:0;text-align:start;text-decoration-line:none;text-decoration-style:solid;text-decoration-color:#000000;text-transform:none;isolation:auto;mix-blend-mode:normal" d="M10.89 1030.113c-.773 0-1.39.617-1.39 1.39v6.333l5.094 3.1a2.702 2.702 0 0 0 2.812 0l5.094-3.1v-6.332c0-.774-.617-1.39-1.39-1.39zm6.46 1.285a.5.5 0 0 1 .035 0 .5.5 0 0 1 .5.5.5.5 0 0 1-.5.5.5.5 0 0 1-.5-.5.5.5 0 0 1 .465-.5zm-1.553.381a.5.5 0 0 1 .47.313c.059.138.144.262.249.367a1.148 1.148 0 0 0 1.052.315.5.5 0 0 1 .2.98 2.158 2.158 0 0 1-2.422-1.273.5.5 0 0 1 .45-.701zm-1.412 1.27c.822 0 1.5.677 1.5 1.5 0 .25-.07.483-.18.691.072.013.154.036.21.033.194-.012.36-.057.661-.547a.5.5 0 0 1 .041-.059c.306-.367.76-.619 1.268-.619 1.014 0 1.75.946 1.75 2s-.736 2-1.75 2c-.508 0-.962-.252-1.268-.619a.5.5 0 1 1 .768-.64c.146.174.317.26.5.26.366 0 .75-.398.75-1 0-.604-.384-1-.75-1-.183 0-.354.083-.5.259-.366.563-.83.864-1.283.936.02.098.033.2.033.304 0 .82-.672 1.5-1.492 1.5h-.264c-1.095 0-1.994-.9-1.994-1.994a.5.5 0 1 1 1 0c0 .554.44.994.994.994h.264a.489.489 0 0 0 .492-.5c0-.284-.216-.5-.492-.5a.5.5 0 0 1-.118-.014c-.047 0-.092.014-.14.014a.5.5 0 1 1 0-1c.282 0 .5-.218.5-.5 0-.282-.218-.5-.5-.5a.49.49 0 0 0-.354.147.5.5 0 1 1-.707-.707c.271-.271.65-.44 1.06-.44z" id="path9972" inkscape:connector-curvature="0" text-decoration="none" baseline-shift="baseline" display="inline" overflow="visible" opacity="1" solid-color="#000000" solid-opacity="1"/><path style="line-height:normal;text-indent:0;text-align:start;text-decoration-line:none;text-decoration-style:solid;text-decoration-color:#000000;text-transform:none;isolation:auto;mix-blend-mode:normal" d="M3.045 1035.076l9.152 5.572-8.66 7.506a3.183 3.183 0 0 1-.537-1.771v-10.88c0-.144.026-.285.045-.427z" id="path9970" inkscape:connector-curvature="0" text-decoration="none" baseline-shift="baseline" display="inline" overflow="visible" opacity="1" solid-color="#000000" solid-opacity="1"/><path style="line-height:normal;text-indent:0;text-align:start;text-decoration-line:none;text-decoration-style:solid;text-decoration-color:#000000;text-transform:none;isolation:auto;mix-blend-mode:normal" d="M28.955 1035.076c.02.142.045.283.045.428v10.879c0 .655-.198 1.262-.537 1.771l-8.66-7.506z" id="path9968" inkscape:connector-curvature="0" text-decoration="none" baseline-shift="baseline" display="inline" overflow="visible" opacity="1" solid-color="#000000" solid-opacity="1"/><path style="line-height:normal;text-indent:0;text-align:start;text-decoration-line:none;text-decoration-style:solid;text-decoration-color:#000000;text-transform:none;isolation:auto;mix-blend-mode:normal" d="M13.094 1041.195l.98.596c1.182.72 2.67.72 3.852 0l.98-.596 8.871 7.688a3.28 3.28 0 0 1-2.056.73H6.279a3.28 3.28 0 0 1-2.056-.73z" id="path9953" inkscape:connector-curvature="0" text-decoration="none" baseline-shift="baseline" display="inline" overflow="visible" opacity="1" solid-color="#000000" solid-opacity="1"/></g><metadata><rdf:RDF xmlns:rdf="http://www.w3.org/1999/02/22-rdf-syntax-ns#" xmlns:rdfs="http://www.w3.org/2000/01/rdf-schema#" xmlns:dc="http://purl.org/dc/elements/1.1/"><rdf:Description about="https://iconscout.com/legal#licenses" dc:title="envelope,greeting,card,om,wishes,diwali,cover" dc:description="envelope,greeting,card,om,wishes,diwali,cover" dc:publisher="Iconscout" dc:date="2017-10-07" dc:format="image/svg+xml" dc:language="en"><dc:creator><rdf:Bag><rdf:li>Vignesh Oviyan</rdf:li></rdf:Bag></dc:creator></rdf:Description></rdf:RDF></metadata></svg>